<?xml version="1.0" encoding="UTF-8" standalone="no"?>
<!-- Created with Inkscape (http://www.inkscape.org/) -->

<svg
   xmlns:dc="http://purl.org/dc/elements/1.1/"
   xmlns:cc="http://creativecommons.org/ns#"
   xmlns:rdf="http://www.w3.org/1999/02/22-rdf-syntax-ns#"
   xmlns:svg="http://www.w3.org/2000/svg"
   xmlns="http://www.w3.org/2000/svg"
   xmlns:sodipodi="http://sodipodi.sourceforge.net/DTD/sodipodi-0.dtd"
   xmlns:inkscape="http://www.inkscape.org/namespaces/inkscape"
   id="svg3039"
   version="1.1"
   inkscape:version="0.48.4 r9939"
   width="260"
   height="160"
   sodipodi:docname="jifi_logo.svg"
   inkscape:export-filename="/home/antunes/NetBeansProjects/S3F/src/resources/jifi_logo90.png"
   inkscape:export-xdpi="90"
   inkscape:export-ydpi="90">
  <metadata
     id="metadata3045">
    <rdf:RDF>
      <cc:Work
         rdf:about="">
        <dc:format>image/svg+xml</dc:format>
        <dc:type
           rdf:resource="http://purl.org/dc/dcmitype/StillImage" />
        <dc:title></dc:title>
      </cc:Work>
    </rdf:RDF>
  </metadata>
  <defs
     id="defs3043" />
  <sodipodi:namedview
     pagecolor="#ffffff"
     bordercolor="#666666"
     borderopacity="1"
     objecttolerance="10"
     gridtolerance="10"
     guidetolerance="10"
     inkscape:pageopacity="0"
     inkscape:pageshadow="2"
     inkscape:window-width="1366"
     inkscape:window-height="702"
     id="namedview3041"
     showgrid="false"
     inkscape:object-nodes="true"
     inkscape:snap-nodes="true"
     inkscape:zoom="1.571875"
     inkscape:cx="25.46133"
     inkscape:cy="46.595236"
     inkscape:window-x="0"
     inkscape:window-y="27"
     inkscape:window-maximized="1"
     inkscape:current-layer="svg3039" />
  <rect
     style="fill:#ffffff"
     id="rect3230"
     width="258"
     height="157.5"
     x="2"
     y="2.4999995" />
  <path
     id="path3107"
     style="fill:#010101"
     d="m 78.09785,22.750019 c -1.88009,-5.049776 2.13792,-9.135989 6.30116,-6.408128 3.43249,2.249058 3.45909,5.946121 0.0539,7.497613 -3.75795,1.712235 -5.41794,1.427654 -6.3551,-1.089485 z m 103.12502,24.69801 c -0.65709,-0.791743 -1.22237,-2.591779 -1.04513,-4.137538 0.28482,-2.483919 0.72893,-2.810471 3.82226,-2.810471 3.09333,0 3.53745,0.326551 3.82226,2.810471 0.21666,1.889522 -0.35851,2.639442 -1.17851,3.544679 -1.28032,1.413419 -3.69506,2.67234 -5.42088,0.592859 z m -72.17268,0.112462 c -0.65709,-0.791741 -1.04969,-2.704241 -0.87245,-4.25 0.28482,-2.483919 0.72893,-2.810471 3.82226,-2.810471 3.09333,0 4.01458,1.439872 4.2994,3.923791 0.55494,4.839786 -4.41808,6.547983 -7.24921,3.13668 z m 75.95363,69.371329 c -1.75622,-0.67118 -2.73519,-2.3893 -3.63942,-3.58468 -1.23615,-1.63416 -2.07457,-3.05473 -2.19848,-6.49756 -0.11375,-3.16024 1.14338,-9.80548 1.32426,-10.24833 0.45126,-1.1048 6.02182,-27.871115 5.55713,-28.417938 -0.20185,-0.237521 -2.08252,-0.324055 -3.2341,0.176985 -3.0509,1.327401 -5.16675,-0.102431 -4.90589,-3.315267 0.16162,-1.990527 1.9157,-2.52958 3.74884,-3.437883 3.10053,-1.536271 7.16849,-2.287199 9.53288,0.495065 1.56818,1.845341 2.00217,2.826776 1.358,10.720286 -0.41371,5.070652 -2.02216,13.856582 -3.23339,18.724522 -3.85482,15.49264 -2.98576,20.58858 1.88027,19.16088 1.18506,-0.34769 1.95199,-2.05077 0.52494,-3.73003 -1.05127,-1.23706 -1.06442,-1.65944 -1.13784,-2.13324 -0.14431,-0.9313 -0.075,-2.3646 1.33972,-3.56687 3.64317,-3.09599 6.28469,-0.25416 7.44796,3.46062 0.74501,2.37913 1.26257,4.54814 -0.1948,7.60927 -2.18898,4.59784 -8.65817,6.69068 -14.17011,4.58417 z m -72.19261,-0.0317 c -4.1471,-1.61458 -5.59758,-4.15593 -5.77501,-10.11839 -0.0941,-3.16089 0.35269,-5.981 0.38267,-6.48951 0.13792,-2.33923 3.02438,-13.64777 4.60729,-23.02459 0.7294,-4.320817 1.50611,-9.242129 1.3606,-9.41553 -0.20036,-0.238771 -1.30903,-0.03006 -2.46372,0.463798 -3.0591,1.30838 -5.16601,-0.134597 -4.88515,-3.345747 0.46832,-5.35442 9.56512,-7.310653 13.29979,-2.860071 1.55666,1.855068 1.70167,3.491797 1.00837,11.381144 -0.16552,1.883937 -0.53633,4.051026 -1.00071,6.280096 -0.78485,3.76733 -1.83694,7.71168 -2.61695,10.76525 -3.95122,15.46833 -3.07227,21.47637 1.80256,20.07899 1.18719,-0.34031 1.13355,-0.81469 -0.28301,-2.50279 -2.20623,-2.62915 -2.10563,-3.62882 0.59306,-5.89342 6.00795,-5.04153 11.95022,2.36754 8.16857,10.18491 -2.21757,4.58412 -8.69966,6.63665 -14.19838,4.49585 z M 141.25813,131.75 c -0.54271,-0.6875 -1.28583,-7.1 -1.65137,-14.25 -0.36554,-7.15 -0.94091,-16.89411 -1.27859,-21.65358 -0.41531,-5.85368 -0.49945,-8.4697 -0.49945,-8.4697 0,0 -2.087,-0.10124 -2.97162,-0.27816 C 132.84303,86.69574 132,85.45249 132,84.025 c 0,-2.00441 0.85556,-2.1045 4.01143,-2.31587 0.45116,-0.0302 2.06836,-0.0769 2.06836,-0.0769 0,0 -0.0798,-4.90301 -0.0798,-15.253657 0,-17.972999 0.99469,-21.430741 7.98057,-27.74206 7.17425,-6.481512 18.64679,-5.574203 23.1632,1.831869 2.75932,4.524766 2.47725,11.569474 -0.59602,14.885585 -3.63172,3.918688 -9.46214,3.724907 -12.95886,-0.430702 -3.06786,-3.645954 -3.21441,-5.047208 -0.76015,-7.268287 2.36956,-2.144418 5.45985,-2.018148 6.05929,0.09501 0.31622,1.114737 1.41529,0.870428 2.19834,0.551347 0.89104,-0.363089 1.50506,-1.779593 0.13872,-3.864886 -1.45022,-2.213318 -3.71988,-2.997996 -6.36865,-2.854825 -7.24053,0.391366 -11.2603,4.709047 -11.71471,24.185649 l -0.35827,15.355917 8.35827,-0.3116 c 0,0 6.39403,-0.52682 8.02088,0.19448 1.54385,0.6845 1.21362,2.40158 1.21362,2.40158 0.005,2.32532 -2.03056,4.12172 -10.37623,4.49726 -3.575,0.16087 -6.6026,-0.037 -6.63081,0.0462 -0.0282,0.0832 0.54185,9.77391 1.16959,21.04891 0.99497,17.87072 1.90388,20.72445 0.60057,22.25 -1.75923,2.05922 -4.50671,2.2412 -5.88122,0.5 z m -68.65381,2.21157 c -4.25781,-1.27414 -8.54549,-5.75515 -11.23354,-11.74008 -4.47649,-9.96686 -2.41316,-19.77316 4.95282,-23.5391 3.25566,-1.66449 4.38073,-1.78794 7.57434,-0.83112 6.7845,2.03269 8.82614,11.0853 3.18138,14.10628 -1.6449,0.88032 -3.216154,0.0823 -4.10755,-0.98578 -0.821596,-0.98443 -0.424598,-2.44305 -0.02413,-3.70483 0.91967,-2.8976 -3.544542,-2.81179 -5.536712,0.22865 -1.1818,1.80365 -2.117074,4.53581 -1.614334,7.21564 0.79404,4.23261 3.134696,7.75647 6.221268,10.40829 3.106761,2.66917 7.580916,2.97167 9.471836,2.24606 5.30891,-2.03722 8.33379,-24.63303 6.60854,-49.36558 -1.58284,-22.690964 -3.621706,-33.742498 -3.621706,-33.742498 0,0 -3.473144,-0.03856 -5.302334,0.280839 -3.72906,0.65114 -6.1742,-0.789495 -6.1742,-3.637733 0,-3.301784 3.88131,-4.657469 13.61815,-4.756622 7.64093,-0.07781 9.38643,0.203592 10.77411,1.736963 2.20055,2.431575 1.065189,5.077556 -2.48324,5.787245 -1.024372,0.204875 -3.11796,0.29854 -3.11796,0.29854 0,0 0.823442,5.73588 2.81166,21.033266 1.761546,13.55337 1.555261,28.58531 0.344669,41.30283 -0.825424,8.67123 -1.947536,16.77713 -3.898759,20.60184 -3.675915,7.20539 -9.93959,9.60191 -18.444308,7.0569 z M 0,80.32569 0,0.6513715 2.5,3.0000005 5,5.3486285 5,80.17431 5,155 l 125,0 125,0 0,-74.825689 0,-74.8256825 2.5,-2.348628 2.5,-2.348629 0,79.6743195 L 260,160 130,160 0,160 0,80.32569 z M 2,2.4999995 -0.34863,-5.0000003e-7 l 130.34863,0 130.34863,0 L 258,2.4999995 l -2.34863,2.5 -125.65137,0 -125.65137,0 -2.34863,-2.5 z"
     inkscape:connector-curvature="0" />
</svg>
